<svg viewBox="0 0 1920 1436" xmlns="http://www.w3.org/2000/svg" preserveAspectRatio="xMidYMid slice">
  <g filter="url(#filter0_d_18_944)">
    <path d="M0 1H1920V1419H0V1Z" fill="#282E4F"/>
  </g>
  <path d="M1920 875H0V1415H1920V875Z" fill="#23263A"/>
  <path d="M0 1187H192V1259H384V1281H576V1262H768V1238H960V1334H1152H1344V1267H1536V1312H1728V1274H1920V1187V875H1728H1536H1344H1152H960H768H576H384H192H0V1187Z" fill="#30376B"/>
  <path d="M0 1116H192V1237H384V1205H576V1171H768V1136H960V1211H1152V1174H1344V1233H1536V1158H1728V1145H1920V1215V875H1728H1536H1344H1152H960H768H576H384H192H0V1116Z" fill="#2D3462"/>
  <path d="M0 1038H192V1087H384V1074H576V1128H768V1022H960V1114H1152V1138H1344V1050H1536V1005H1728V1101H1920V1059V875H1728H1536H1344H1152H960H768H576H384H192H0V1038Z" fill="#2B3158"/>
  <path d="M0 1028H192V944H384V952H576V935H768V1010H960V949H1152V931H1344V1038H1536V1012H1728V957H1920V1032V875H1728H1536H1344H1152H960H768H576H384H192H0V1028Z" fill="#282E4F"/>
  <path d="M0 1H1920V541H0V1Z" fill="#23263A"/>
  <path d="M1920 208H1745V57H1571V89H1396V252H1222V68H1047V145H873V134H698V71H524V265H349V173H175V99H0V81V542H175H349H524H698H873H1047H1222H1396H1571H1745H1920V208Z" fill="#30376B"/>
  <path d="M1920 334H1745V251H1571V272H1396V274H1222V220H1047V263H873V301H698V224H524V232H349V152H175V168H0V190V542H175H349H524H698H873H1047H1222H1396H1571H1745H1920V334Z" fill="#2D3462"/>
  <path d="M1920 371H1745V398H1571V357H1396V315H1222V417H1047V257H873V328H698V280H524V383H349V330H175V298H0V328V542H175H349H524H698H873H1047H1222H1396H1571H1745H1920V371Z" fill="#2B3158"/>
  <path d="M1920 366H1745V384H1571V386H1396V393H1222V488H1047V381H873V360H698V432H524V428H349V487H175V375H0V439V542H175H349H524H698H873H1047H1222H1396H1571H1745H1920V366Z" fill="#282E4F"/>
  <defs>
    <filter id="filter0_d_18_944" x="-9" y="0" width="1938" height="1436" filterUnits="userSpaceOnUse" color-interpolation-filters="sRGB">
      <feFlood flood-opacity="0" result="BackgroundImageFix"/>
      <feColorMatrix in="SourceAlpha" type="matrix" values="0 0 0 0 0 0 0 0 0 0 0 0 0 0 0 0 0 0 127 0" result="hardAlpha"/>
      <feOffset dy="8"/>
      <feGaussianBlur stdDeviation="4.5"/>
      <feComposite in2="hardAlpha" operator="out"/>
      <feColorMatrix type="matrix" values="0 0 0 0 0 0 0 0 0 0 0 0 0 0 0 0 0 0 0.25 0"/>
      <feBlend mode="normal" in2="BackgroundImageFix" result="effect1_dropShadow_18_944"/>
      <feBlend mode="normal" in="SourceGraphic" in2="effect1_dropShadow_18_944" result="shape"/>
    </filter>
  </defs>
</svg>
