<svg width="1920" height="1080" viewBox="0 0 1920 1080" fill="none" xmlns="http://www.w3.org/2000/svg">
<g clip-path="url(#clip0_18_945)">
<path d="M1920 0H0V1080H1920V0Z" fill="#23263A"/>
<path d="M0 663H175V965H349V901H524V574H698V944H873V788H1047V811H1222V937H1396V549H1571V733H1745V881H1920V917V0H1745H1571H1396H1222H1047H873H698H524H349H175H0V663Z" fill="#30376B"/>
<path d="M0 412H175V578H349V535H524V530H698V639H873V554H1047V477H1222V632H1396V616H1571V774H1745V743H1920V698V0H1745H1571H1396H1222H1047H873H698H524H349H175H0V412Z" fill="#2D3462"/>
<path d="M0 337H175V282H349V366H524V450H698V244H873V564H1047V423H1222V518H1396V312H1571V419H1745V484H1920V423V0H1745H1571H1396H1222H1047H873H698H524H349H175H0V337Z" fill="#2B3158"/>
<path d="M0 347H175V310H349V307H524V293H698V102H873V318H1047V359H1222V216H1396V222H1571V105H1745V328H1920V201V0H1745H1571H1396H1222H1047H873H698H524H349H175H0V347Z" fill="#282E4F"/>
</g>
<defs>
<clipPath id="clip0_18_945">
<rect width="1920" height="1080" fill="white"/>
</clipPath>
</defs>
</svg>
